<svg xmlns="http://www.w3.org/2000/svg" viewBox="0 0 64 64">
  <rect width="64" height="64" rx="16" fill="#3155f5"/>
  <path d="M23.8 43.5c-8.1 0-13.2-5.3-13.2-13.5 0-8.1 5.3-13.5 13.4-13.5 4.8 0 8.7 1.9 10.8 5.6l-5.5 3.3c-1.1-1.9-2.8-2.9-5.1-2.9-4.1 0-6.7 2.9-6.7 7.5s2.5 7.5 6.7 7.5c2.4 0 4.2-1.1 5.3-3.2l5.5 3.2c-2.3 4-6.2 6-11.2 6Z" fill="#fff"/>
  <path d="M44.7 43.5c-4.8 0-8.6-1.6-11.3-4.7l4.1-4.2c2 2.1 4.5 3.2 7.3 3.2 2.4 0 3.8-.8 3.8-2.2 0-1.2-.9-1.8-4.6-2.7-6.4-1.5-9.2-3.8-9.2-8.2 0-4.9 4-8.2 10.2-8.2 4.4 0 7.9 1.4 10.5 4.1l-3.9 4.3a9.2 9.2 0 0 0-6.5-2.7c-2.2 0-3.5.8-3.5 2.1 0 1.2 1.1 1.9 4.8 2.8 6.2 1.5 9 3.8 9 8.3 0 5-4 8.1-10.7 8.1Z" fill="#c9f36b"/>
</svg>
